# xmcd
#
# Track frame offsets: 
#        150
#        15990
#        28995
#        42737
#        57777
#        74355
#        88987
#        104382
#        117975
#        132417
#        145955
#        161895
#        179547
#        190755
#        203342
#        232165
#        264765
#        268275
#        283427
#        288317
#
# Disc length: 3996 seconds
#
# Revision: 1
# Processed by: cddbd v1.5.1PL0 Copyright (c) Steve Scherf et al.
# Submitted via: ExactAudioCopy v0.95a5
#
DISCID=3d0f9a14
DTITLE=Various Artist - T'aint Nobody's Biz-Ness If I Do
DYEAR=1900
DGENRE=Jazz
TTITLE0=Bessie Smith - 1923
TTITLE1=Sara Martin (Fats Waller On Piano) - 1922
TTITLE2=Fats Waller - 1923
TTITLE3=Frank Stokes (Part 1) - 1928
TTITLE4=Fats Waller (Player Piano Roll On Piano) - 1923
TTITLE5=Frank Stokes (Part 2) - 1928
TTITLE6=Fats Waller (Player Piano Roll On Organ) - 1923 
TTITLE7=The Ink Spots - 1936
TTITLE8=Hoosier Hot Shots - 1936
TTITLE9=Fats Waller - 1940
TTITLE10=Dinah Wahington - 1957
TTITLE11=Abbey Lincoln - 1958
TTITLE12=Helen Humes - 1959
TTITLE13=Lou Rawls - 1962
TTITLE14=Abbey Lincoln (With Eric Dolphy) - 1960
TTITLE15=Abbey Lincoln (With The Newport Rebels) - 1960
TTITLE16=Billie Holiday (Autobiography Read By Gilbert Millstein) - 19
TTITLE16=56
TTITLE17=Billie Holiday - 1949
TTITLE18=Billie Holiday (Segment From Autobiography)
TTITLE19=Billie Holiday (Carnegie Hall) - 1956
EXTD=
EXTT0=
EXTT1=
EXTT2=
EXTT3=
EXTT4=
EXTT5=
EXTT6=
EXTT7=
EXTT8=
EXTT9=
EXTT10=
EXTT11=
EXTT12=
EXTT13=
EXTT14=
EXTT15=
EXTT16=
EXTT17=
EXTT18=
EXTT19=
PLAYORDER=
